<svg width="168.000000" height="50.000000" viewBox="0 0 168 50" fill="none" xmlns="http://www.w3.org/2000/svg" xmlns:xlink="http://www.w3.org/1999/xlink">
	<desc>
			Created with Pixso.
	</desc>
	<defs>
		<clipPath id="clip2_539">
			<rect id="google-play-1b282a5faa8753db97e49dd35e98dd25 1" width="168.000000" height="50.000000" fill="white" fill-opacity="0"/>
		</clipPath>
		<linearGradient x1="400.500610" y1="-527.480347" x2="1405.696777" y2="1439.186279" id="paint_linear_2_504_0" gradientUnits="userSpaceOnUse">
			<stop stop-color="#19A3B4"/>
			<stop offset="0.348170" stop-color="#5BC3AF"/>
			<stop offset="0.922340" stop-color="#C9F7A6"/>
			<stop offset="1.000000" stop-color="#D7FEA5"/>
		</linearGradient>
		<linearGradient x1="-148.423340" y1="-1073.067993" x2="939.504028" y2="1112.069580" id="paint_linear_2_505_0" gradientUnits="userSpaceOnUse">
			<stop stop-color="#FC227C"/>
			<stop offset="1.000000" stop-color="#FEEB7B"/>
		</linearGradient>
		<linearGradient x1="470.515625" y1="-441.658264" x2="795.494141" y2="2536.264648" id="paint_linear_2_506_0" gradientUnits="userSpaceOnUse">
			<stop stop-color="#0E4DA0"/>
			<stop offset="1.000000" stop-color="#6BFED4"/>
		</linearGradient>
		<linearGradient x1="2674.983887" y1="277.311523" x2="134.715820" y2="1960.028320" id="paint_linear_2_507_0" gradientUnits="userSpaceOnUse">
			<stop stop-color="#FC472E"/>
			<stop offset="0.003320" stop-color="#FC472E"/>
			<stop offset="1.000000" stop-color="#893CD8"/>
		</linearGradient>
	</defs>
	<rect id="google-play-1b282a5faa8753db97e49dd35e98dd25 1" width="168.000000" height="50.000000" fill="#FFFFFF" fill-opacity="0"/>
	<g clip-path="url(#clip2_539)">
		<path id="Vector" d="M4.19 0L163.8 0C166.12 0 168 1.86 168 4.16L168 45.83C168 48.13 166.12 50 163.8 50L4.19 50C1.88 50 0 48.13 0 45.83L0 4.16C0 1.86 1.88 0 4.19 0Z" fill="#151515" fill-opacity="1.000000" fill-rule="evenodd"/>
		<path id="Vector" d="M34.94 20.29L16.28 10.07C15.75 9.78 15.26 9.71 14.87 9.83L30.15 25.06L34.94 20.29L34.94 20.29Z" fill="url(#paint_linear_2_504_0)" fill-opacity="1.000000" fill-rule="nonzero"/>
		<path id="Vector" d="M34.96 29.85L41.33 26.36C42.62 25.65 42.62 24.5 41.33 23.79L34.94 20.29L30.15 25.06L34.96 29.85Z" fill="url(#paint_linear_2_505_0)" fill-opacity="1.000000" fill-rule="evenodd"/>
		<path id="Vector" d="M14.87 9.83C14.3 10.01 13.93 10.58 13.93 11.45L13.94 38.7C13.94 39.56 14.29 40.12 14.84 40.31L30.15 25.06L14.87 9.83Z" fill="url(#paint_linear_2_506_0)" fill-opacity="1.000000" fill-rule="nonzero"/>
		<path id="Vector" d="M14.84 40.31C15.24 40.45 15.74 40.38 16.28 40.09L34.96 29.85L30.15 25.06L14.84 40.31Z" fill="url(#paint_linear_2_507_0)" fill-opacity="1.000000" fill-rule="nonzero"/>
		<path id="Vector" d="M57.36 8.44C58.53 8.44 59.35 8.96 59.88 9.5L59.05 10.42C58.62 10.01 58.16 9.73 57.37 9.73C55.87 9.73 54.86 10.88 54.86 12.76C54.86 14.67 55.77 15.82 57.46 15.82C57.93 15.82 58.39 15.69 58.66 15.45L58.66 13.64L57.07 13.64L57.07 12.43L60.01 12.43L60.01 16.12C59.43 16.65 58.43 17.11 57.28 17.11C55.03 17.11 53.32 15.58 53.32 12.8C53.32 10.06 55.08 8.44 57.35 8.44L57.36 8.44ZM65.57 13.26C65.57 12.26 65.14 11.66 64.28 11.66C63.53 11.66 62.88 12.21 62.75 13.26L65.57 13.26ZM64.24 10.52C65.96 10.52 66.86 11.75 66.86 13.5C66.86 13.79 66.84 14.04 66.8 14.19L62.76 14.19C62.89 15.33 63.62 15.97 64.64 15.97C65.18 15.97 65.65 15.81 66.11 15.51L66.61 16.43C66.01 16.83 65.25 17.11 64.44 17.11C62.68 17.11 61.32 15.9 61.32 13.82C61.32 11.77 62.75 10.52 64.24 10.52ZM68.31 11.84L67.41 11.84L67.41 10.74L68.39 10.68L68.57 8.96L69.81 8.96L69.81 10.68L71.43 10.68L71.43 11.84L69.81 11.84L69.81 14.83C69.81 15.58 70.1 15.93 70.71 15.93C70.93 15.93 71.19 15.87 71.36 15.8L71.62 16.88C71.27 17 70.84 17.11 70.33 17.11C68.86 17.11 68.32 16.19 68.32 14.83L68.32 11.84L68.31 11.84Z" fill="#E7E7E7" fill-opacity="1.000000" fill-rule="evenodd"/>
		<mask id="mask2_514" mask-type="alpha" maskUnits="userSpaceOnUse" x="51.503174" y="7.902832" width="104.918823" height="37.222168">
			<path id="Vector" d="M51.5 7.9L156.42 7.9L156.42 45.12L51.5 45.12L51.5 7.9Z" fill="#E7E7E7" fill-opacity="1.000000" fill-rule="nonzero"/>
		</mask>
		<g mask="url(#mask2_514)">
			<path id="Vector" d="M75.42 10.68L76.9 10.68L76.9 16.96L75.42 16.96L75.42 10.68ZM75.25 8.74C75.25 8.24 75.64 7.9 76.16 7.9C76.7 7.9 77.08 8.25 77.08 8.74C77.08 9.23 76.7 9.58 76.16 9.58C75.63 9.58 75.25 9.23 75.25 8.74L75.25 8.74ZM79.03 11.84L78.12 11.84L78.12 10.74L79.1 10.68L79.29 8.96L80.53 8.96L80.53 10.68L82.14 10.68L82.14 11.84L80.53 11.84L80.53 14.83C80.53 15.58 80.81 15.93 81.42 15.93C81.64 15.93 81.9 15.87 82.08 15.8L82.34 16.88C81.99 17 81.55 17.11 81.04 17.11C79.57 17.11 79.03 16.19 79.03 14.83L79.03 11.84L79.03 11.84ZM88.72 15.91C89.66 15.91 90.23 15.08 90.23 13.82C90.23 12.56 89.66 11.73 88.72 11.73C87.79 11.73 87.24 12.56 87.24 13.82C87.24 15.08 87.79 15.91 88.72 15.91ZM88.72 10.52C90.31 10.52 91.75 11.72 91.75 13.82C91.75 15.91 90.31 17.11 88.72 17.11C87.15 17.11 85.71 15.91 85.71 13.82C85.71 11.73 87.15 10.52 88.72 10.52L88.72 10.52ZM93.23 10.68L94.46 10.68L94.56 11.52L94.61 11.52C95.18 10.97 95.83 10.52 96.69 10.52C98.05 10.52 98.64 11.43 98.64 13.02L98.64 16.96L97.16 16.96L97.16 13.21C97.16 12.17 96.86 11.79 96.16 11.79C95.61 11.79 95.25 12.06 94.71 12.57L94.71 16.96L93.23 16.96L93.23 10.68L93.23 10.68Z" fill="#E7E7E7" fill-opacity="1.000000" fill-rule="evenodd"/>
		</g>
		<mask id="mask2_527" mask-type="alpha" maskUnits="userSpaceOnUse" x="51.503174" y="7.902832" width="104.918823" height="37.222168">
			<path id="Vector" d="M51.5 7.9L156.42 7.9L156.42 45.12L51.5 45.12L51.5 7.9Z" fill="#FFFFFF" fill-opacity="1.000000" fill-rule="nonzero"/>
		</mask>
		<g mask="url(#mask2_527)">
			<path id="Vector" d="M127.49 29.75C126.44 29.75 125.67 30.04 125.2 30.62C124.73 31.2 124.49 32.12 124.47 33.38L124.47 33.73C124.47 35.17 124.72 36.19 125.2 36.82C125.68 37.44 126.46 37.75 127.53 37.75C128.42 37.75 129.13 37.39 129.63 36.67C130.14 35.96 130.39 34.97 130.39 33.71C130.39 32.43 130.14 31.45 129.63 30.77C129.13 30.09 128.41 29.75 127.49 29.75L127.49 29.75ZM127.72 39.04C127.05 39.04 126.43 38.92 125.88 38.67C125.32 38.43 124.83 38.03 124.48 37.54L124.36 37.54C124.44 38.14 124.47 38.7 124.47 39.24L124.47 43.45L122.91 43.45L122.91 28.62L124.18 28.62L124.4 30.02L124.47 30.02C124.88 29.46 125.34 29.06 125.88 28.81C126.46 28.55 127.09 28.42 127.72 28.43C129.09 28.43 130.15 28.9 130.9 29.82C131.64 30.75 132.01 32.05 132.01 33.73C132.01 35.41 131.63 36.72 130.88 37.65C130.12 38.58 129.07 39.04 127.72 39.04ZM135.64 38.86L134.07 38.86L134.07 24.32L135.64 24.32L135.64 38.86ZM141.11 37.76C142.09 37.76 142.85 37.5 143.41 36.97C143.96 36.44 144.24 35.7 144.24 34.75L144.24 33.83L142.67 33.89C141.43 33.93 140.53 34.13 139.98 34.46C139.43 34.8 139.16 35.33 139.16 36.05C139.16 36.61 139.32 37.03 139.67 37.33C140.01 37.62 140.49 37.76 141.11 37.76ZM144.65 38.86L144.34 37.4L144.26 37.4C143.74 38.05 143.23 38.48 142.72 38.7C142.2 38.93 141.56 39.04 140.8 39.04C139.77 39.04 138.97 38.78 138.39 38.26C137.8 37.74 137.51 37 137.51 36.03C137.51 33.96 139.18 32.88 142.52 32.78L144.28 32.72L144.28 32.08C144.28 31.28 144.1 30.69 143.75 30.31C143.4 29.92 142.84 29.73 142.08 29.73C141.22 29.73 140.24 30 139.16 30.52L138.67 29.33C139.18 29.06 139.74 28.84 140.35 28.69C140.94 28.53 141.56 28.45 142.17 28.45C143.41 28.45 144.32 28.72 144.92 29.27C145.51 29.81 145.81 30.67 145.81 31.87L145.81 38.86L144.64 38.86L144.65 38.86ZM146.72 28.62L148.4 28.62L150.66 34.46C151.16 35.79 151.47 36.75 151.59 37.35L151.66 37.35C151.75 37.03 151.91 36.48 152.18 35.71C152.44 34.95 153.29 32.58 154.74 28.62L156.42 28.62L151.98 40.28C151.53 41.43 151.02 42.25 150.43 42.73C149.84 43.21 149.12 43.45 148.27 43.45C147.79 43.45 147.31 43.4 146.85 43.29L146.85 42.05C147.19 42.13 147.58 42.16 148.01 42.16C149.08 42.16 149.85 41.56 150.31 40.37L150.89 38.91L146.72 28.62L146.72 28.62ZM97.79 35.01C98.29 34.51 98.34 33.83 98.34 33.45C98.34 31.9 97.4 29.51 95.61 29.51C95.05 29.51 94.44 29.79 94.09 30.21C93.73 30.66 93.62 31.24 93.62 31.8C93.62 33.23 94.46 35.61 96.32 35.61C96.87 35.6 97.4 35.38 97.79 35.01ZM97.17 39.08C97 39.06 96.89 39.06 96.67 39.06C96.48 39.06 95.31 39.1 94.4 39.4C93.92 39.57 92.54 40.09 92.54 41.6C92.54 43.12 94.03 44.22 96.35 44.22C98.42 44.22 99.53 43.23 99.53 41.9C99.53 40.81 98.81 40.23 97.17 39.08L97.17 39.08ZM98.7 29.57C99.2 29.98 100.24 30.84 100.24 32.46C100.24 34.05 99.33 34.8 98.42 35.5C98.14 35.78 97.82 36.08 97.82 36.55C97.82 37.02 98.14 37.28 98.38 37.47L99.16 38.07C100.11 38.87 100.98 39.59 100.98 41.07C100.98 43.08 99 45.12 95.29 45.12C92.15 45.12 90.64 43.64 90.64 42.05C90.64 41.28 91.02 40.19 92.3 39.44C93.64 38.63 95.46 38.52 96.43 38.45C96.13 38.07 95.78 37.66 95.78 37C95.78 36.64 95.89 36.42 96 36.16C95.76 36.19 95.52 36.2 95.31 36.2C93.02 36.2 91.72 34.51 91.72 32.84C91.72 31.86 92.17 30.77 93.1 29.98C94.33 28.97 95.8 28.8 96.98 28.8L101.43 28.8L100.05 29.57L98.7 29.57L98.7 29.57ZM87.78 37C88.3 36.32 88.43 35.46 88.43 34.63C88.43 32.75 87.53 29.16 84.85 29.16C84.14 29.16 83.42 29.44 82.91 29.89C82.07 30.64 81.91 31.58 81.91 32.5C81.91 34.61 82.97 38.1 85.58 38.1C86.42 38.1 87.29 37.69 87.78 37.01L87.78 37ZM85.09 38.74C81.65 38.74 79.82 36.09 79.82 33.69C79.82 30.89 82.13 28.5 85.41 28.5C88.59 28.5 90.57 30.95 90.57 33.54C90.57 36.07 88.61 38.74 85.09 38.74L85.09 38.74ZM76.08 37C76.6 36.32 76.73 35.46 76.73 34.63C76.73 32.75 75.82 29.16 73.14 29.16C72.43 29.16 71.71 29.44 71.2 29.89C70.35 30.64 70.21 31.58 70.21 32.5C70.21 34.61 71.26 38.1 73.88 38.1C74.72 38.1 75.58 37.69 76.08 37.01L76.08 37ZM73.38 38.74C69.94 38.74 68.11 36.09 68.11 33.69C68.11 30.89 70.42 28.5 73.7 28.5C76.88 28.5 78.87 30.95 78.87 33.54C78.87 36.07 76.9 38.74 73.38 38.74L73.38 38.74ZM66.46 38.4L63.35 39.11C62.09 39.3 60.96 39.47 59.77 39.47C53.78 39.47 51.5 35.11 51.5 31.7C51.5 27.53 54.73 23.66 60.27 23.66C61.39 23.66 62.51 23.81 63.59 24.11C65.22 24.56 65.98 25.12 66.46 25.44L64.65 27.14L63.9 27.31L64.44 26.45C63.7 25.74 62.35 24.43 59.79 24.43C56.36 24.43 53.78 27.01 53.78 30.77C53.78 34.81 56.73 38.62 61.46 38.62C62.85 38.62 63.57 38.34 64.22 38.08L64.22 34.62L60.94 34.79L62.68 33.86L67.28 33.86L66.72 34.4C66.56 34.53 66.54 34.57 66.5 34.75C66.48 34.94 66.45 35.56 66.45 35.78L66.45 38.4L66.46 38.4Z" fill="#FFFFFF" fill-opacity="1.000000" fill-rule="evenodd"/>
		</g>
		<mask id="mask2_532" mask-type="alpha" maskUnits="userSpaceOnUse" x="51.503174" y="7.902832" width="104.918823" height="37.222168">
			<path id="Vector" d="M51.5 7.9L156.42 7.9L156.42 45.12L51.5 45.12L51.5 7.9Z" fill="#FFFFFF" fill-opacity="1.000000" fill-rule="nonzero"/>
		</mask>
		<g mask="url(#mask2_532)">
			<path id="Vector" d="M105.57 37.78C104.85 37.72 104.7 37.59 104.7 36.75L104.7 24.59L104.71 24.45C104.8 23.69 105.02 23.57 105.69 23.18L102.58 23.18L100.96 23.96L102.61 23.96L102.61 37.22C102.61 37.65 102.53 37.72 102.03 38.36L105.87 38.36L106.68 37.89C106.31 37.85 105.94 37.83 105.57 37.78L105.57 37.78ZM112.37 31.62C112.79 31.47 113 31.34 113 31.04C113 30.19 112.03 29.21 110.86 29.21C110 29.21 108.39 29.87 108.39 32.17C108.39 32.54 108.43 32.92 108.45 33.3L112.37 31.61L112.37 31.62ZM114.4 37.98C114.17 38.1 113.93 38.26 113.69 38.36C112.98 38.69 112.25 38.77 111.6 38.77C110.91 38.77 109.83 38.72 108.73 37.94C107.2 36.87 106.53 35.03 106.53 33.43C106.53 30.12 109.25 28.5 111.47 28.5C112.25 28.5 113.05 28.7 113.7 29.1C114.77 29.8 115.05 30.72 115.2 31.21L110.14 33.24L108.47 33.37C109.01 36.08 110.87 37.66 112.92 37.66C114.02 37.66 114.82 37.27 115.55 36.91L114.41 37.98L114.4 37.98ZM116.48 28.65L116.48 30.06L116.31 30.06L116.31 28.65L115.84 28.65L115.84 28.5L116.96 28.5L116.96 28.65L116.48 28.65ZM118.42 30.06L118.42 28.63L118.42 28.63L117.98 30.06L117.84 30.06L117.4 28.64L117.4 28.64L117.4 30.06L117.24 30.06L117.24 28.5L117.51 28.5L117.91 29.76L117.91 29.76L118.3 28.5L118.58 28.5L118.58 30.06L118.42 30.06L118.42 30.06Z" fill="#FFFFFF" fill-opacity="1.000000" fill-rule="evenodd"/>
		</g>
	</g>
</svg>
