<svg width="150.000000" height="150.000000" viewBox="0 0 150 150" fill="none" xmlns="http://www.w3.org/2000/svg" xmlns:xlink="http://www.w3.org/1999/xlink">
	<desc>
			Created with Pixso.
	</desc>
	<defs/>
	<circle id="Ellipse 2" cx="75.000000" cy="75.000000" r="75.000000" fill="#FFFFFF" fill-opacity="1.000000"/>
	<circle id="Ellipse 2" cx="75.000000" cy="75.000000" r="74.500000" stroke="#0066FF" stroke-opacity="1.000000" stroke-width="1.000000"/>
	<path id="Vector" d="M82.99 61.19C82.73 61.04 82.45 60.94 82.15 60.9C81.85 60.87 81.55 60.89 81.26 60.96C80.97 61.04 80.7 61.18 80.46 61.36C80.22 61.55 80.02 61.77 79.88 62.03L66.79 84.68C66.63 84.94 66.54 85.23 66.5 85.53C66.46 85.82 66.48 86.13 66.56 86.42C66.64 86.71 66.77 86.98 66.95 87.21C67.14 87.45 67.37 87.65 67.63 87.8C67.97 88.01 68.37 88.11 68.76 88.09C69.17 88.09 69.56 87.98 69.91 87.79C70.25 87.59 70.54 87.3 70.75 86.96L83.84 64.31C83.99 64.05 84.09 63.76 84.13 63.46C84.18 63.16 84.16 62.86 84.08 62.57C84 62.28 83.86 62.01 83.68 61.77C83.49 61.53 83.26 61.34 82.99 61.19ZM72.95 68.74C73.02 66.65 72.28 64.62 70.86 63.08C69.45 61.54 67.48 60.63 65.39 60.53C63.3 60.63 61.33 61.54 59.91 63.08C58.49 64.62 57.73 66.65 57.8 68.74C57.72 70.84 58.48 72.88 59.9 74.43C61.32 75.97 63.29 76.89 65.39 76.99C67.49 76.89 69.46 75.97 70.87 74.42C72.29 72.88 73.03 70.84 72.95 68.74ZM65.39 72.41C64.51 72.3 63.71 71.87 63.15 71.18C62.59 70.5 62.31 69.62 62.39 68.74C62.3 67.86 62.57 66.98 63.14 66.29C63.7 65.61 64.51 65.17 65.39 65.08C66.27 65.17 67.08 65.61 67.64 66.29C68.19 66.98 68.45 67.86 68.36 68.74C68.44 69.62 68.18 70.49 67.62 71.18C67.07 71.86 66.27 72.3 65.39 72.41ZM85.27 72C83.18 72.1 81.21 73.01 79.8 74.55C78.38 76.09 77.63 78.12 77.71 80.21C77.62 82.31 78.37 84.35 79.78 85.9C81.2 87.44 83.17 88.36 85.27 88.46C87.36 88.36 89.34 87.44 90.76 85.9C92.18 84.35 92.93 82.31 92.86 80.21C92.92 78.12 92.17 76.09 90.75 74.55C89.33 73.01 87.36 72.1 85.27 72ZM85.27 83.88C84.39 83.78 83.59 83.33 83.03 82.65C82.48 81.96 82.21 81.09 82.3 80.21C82.21 79.33 82.48 78.46 83.03 77.77C83.59 77.09 84.39 76.65 85.27 76.55C86.15 76.64 86.96 77.08 87.52 77.76C88.08 78.45 88.35 79.33 88.27 80.21C88.34 81.09 88.07 81.97 87.51 82.65C86.95 83.34 86.14 83.78 85.27 83.88Z" fill="#0066FF" fill-opacity="1.000000" fill-rule="nonzero"/>
	<path id="Vector" d="M72.95 68.74C73.02 66.65 72.28 64.62 70.86 63.08C69.45 61.54 67.48 60.63 65.39 60.53C63.3 60.63 61.33 61.54 59.91 63.08C58.49 64.62 57.73 66.65 57.8 68.74C57.72 70.84 58.48 72.88 59.9 74.43C61.32 75.97 63.29 76.89 65.39 76.99C67.49 76.89 69.46 75.97 70.87 74.42C72.29 72.88 73.03 70.84 72.95 68.74ZM65.39 75.99Q63.98 75.91 62.8 75.36Q61.6 74.8 60.63 73.75Q59.66 72.69 59.2 71.45Q58.75 70.21 58.8 68.78L58.8 68.74L58.8 68.71Q58.75 67.28 59.21 66.05Q59.67 64.81 60.64 63.76Q61.61 62.71 62.81 62.15Q63.99 61.61 65.39 61.53Q66.79 61.61 67.97 62.15Q69.16 62.71 70.12 63.76Q71.09 64.81 71.55 66.05Q72 67.28 71.95 68.7L71.94 68.74L71.95 68.78Q72.01 70.21 71.56 71.45Q71.1 72.69 70.14 73.75Q69.17 74.8 67.98 75.36Q66.8 75.91 65.39 75.99ZM82.99 61.19C82.73 61.04 82.45 60.94 82.15 60.9C81.85 60.87 81.55 60.89 81.26 60.96C80.97 61.04 80.7 61.18 80.46 61.36C80.22 61.55 80.02 61.77 79.88 62.03L66.79 84.68C66.63 84.94 66.54 85.23 66.5 85.53C66.46 85.82 66.48 86.13 66.56 86.42C66.64 86.71 66.77 86.98 66.95 87.21C67.14 87.45 67.37 87.65 67.63 87.8C67.97 88.01 68.37 88.11 68.76 88.09C69.17 88.09 69.56 87.98 69.91 87.79C70.25 87.59 70.54 87.3 70.75 86.96L83.84 64.31C83.99 64.05 84.09 63.76 84.13 63.46C84.18 63.16 84.16 62.86 84.08 62.57C84 62.28 83.86 62.01 83.68 61.77C83.49 61.53 83.26 61.34 82.99 61.19ZM81.77 61.89Q81.89 61.88 82.02 61.9Q82.14 61.91 82.26 61.95Q82.38 61.99 82.49 62.06L82.5 62.06L82.51 62.07Q82.62 62.13 82.72 62.21Q82.81 62.29 82.89 62.39Q82.97 62.49 83.02 62.6Q83.08 62.71 83.11 62.83Q83.15 62.95 83.15 63.08Q83.16 63.2 83.14 63.32Q83.14 63.34 83.14 63.36Q83.1 63.59 82.97 63.81L69.88 86.45Q69.8 86.6 69.68 86.71Q69.56 86.83 69.41 86.92Q69.26 87 69.1 87.05Q68.93 87.09 68.76 87.09L68.74 87.09L68.72 87.09Q68.57 87.1 68.42 87.06Q68.28 87.02 68.15 86.94L68.14 86.94L68.12 86.93Q68.01 86.87 67.92 86.78Q67.82 86.7 67.75 86.6Q67.67 86.5 67.61 86.39Q67.56 86.28 67.52 86.16Q67.49 86.03 67.48 85.91Q67.47 85.78 67.49 85.66Q67.5 85.54 67.54 85.43Q67.58 85.3 67.65 85.18L80.74 62.53Q80.81 62.42 80.89 62.33Q80.97 62.23 81.07 62.15Q81.17 62.07 81.28 62.02Q81.4 61.96 81.52 61.93Q81.64 61.9 81.77 61.89ZM61.56 70.34Q61.81 71.13 62.37 71.82Q62.94 72.5 63.66 72.9Q64.39 73.3 65.28 73.4L65.39 73.41L65.51 73.4Q66.39 73.3 67.12 72.9Q67.84 72.5 68.4 71.81Q68.96 71.12 69.2 70.32Q69.43 69.58 69.37 68.75Q69.44 67.91 69.21 67.16Q68.98 66.36 68.41 65.66Q67.85 64.97 67.12 64.57Q66.39 64.18 65.5 64.08L65.39 64.07L65.29 64.08Q64.39 64.18 63.66 64.57Q62.93 64.96 62.36 65.66Q61.79 66.35 61.55 67.15Q61.32 67.9 61.38 68.75Q61.33 69.59 61.56 70.34ZM62.39 68.74C62.31 69.62 62.59 70.5 63.15 71.18C63.71 71.87 64.51 72.3 65.39 72.41C66.27 72.3 67.07 71.86 67.62 71.18C68.18 70.49 68.44 69.62 68.36 68.74C68.45 67.86 68.19 66.98 67.64 66.29C67.08 65.61 66.27 65.17 65.39 65.08C64.51 65.17 63.7 65.61 63.14 66.29C62.57 66.98 62.3 67.86 62.39 68.74ZM85.27 72C83.18 72.1 81.21 73.01 79.8 74.55C78.38 76.09 77.63 78.12 77.71 80.21C77.62 82.31 78.37 84.35 79.78 85.9C81.2 87.44 83.17 88.36 85.27 88.46C87.36 88.36 89.34 87.44 90.76 85.9C92.18 84.35 92.93 82.31 92.86 80.21C92.92 78.12 92.17 76.09 90.75 74.55C89.33 73.01 87.36 72.1 85.27 72ZM85.27 73Q83.87 73.08 82.69 73.62Q81.5 74.18 80.53 75.23Q79.57 76.28 79.11 77.52Q78.66 78.75 78.71 80.17L78.71 80.21L78.71 80.25Q78.65 81.68 79.1 82.92Q79.55 84.16 80.52 85.22Q81.49 86.27 82.68 86.83Q83.86 87.39 85.27 87.46Q86.67 87.39 87.86 86.83Q89.05 86.27 90.02 85.22Q91 84.17 91.45 82.92Q91.91 81.68 91.86 80.25L91.85 80.21L91.86 80.18Q91.9 78.75 91.44 77.52Q90.98 76.28 90.01 75.23Q89.04 74.18 87.85 73.62Q86.67 73.08 85.27 73ZM81.45 81.8Q81.69 82.59 82.26 83.28Q82.82 83.97 83.54 84.37Q84.26 84.77 85.15 84.87L85.26 84.88L85.38 84.87Q86.27 84.77 86.99 84.37Q87.72 83.98 88.28 83.29Q88.85 82.6 89.1 81.81Q89.33 81.06 89.27 80.22Q89.34 79.37 89.11 78.62Q88.86 77.82 88.29 77.13Q87.73 76.43 87 76.04Q86.26 75.65 85.37 75.55L85.26 75.54L85.15 75.55Q84.26 75.66 83.54 76.06Q82.82 76.45 82.26 77.14Q81.69 77.84 81.45 78.63Q81.23 79.38 81.29 80.21Q81.23 81.05 81.45 81.8ZM82.3 80.21C82.21 81.09 82.48 81.96 83.03 82.65C83.59 83.33 84.39 83.78 85.27 83.88C86.14 83.78 86.95 83.34 87.51 82.65C88.07 81.97 88.34 81.09 88.27 80.21C88.35 79.33 88.08 78.45 87.52 77.76C86.96 77.08 86.15 76.64 85.27 76.55C84.39 76.65 83.59 77.09 83.03 77.77C82.48 78.46 82.21 79.33 82.3 80.21Z" fill="#0066FF" fill-opacity="1.000000" fill-rule="evenodd"/>
	<path id="Vector" d="M75.33 47.01C67.79 46.77 60.47 49.53 54.97 54.69C49.47 59.84 46.24 66.96 46 74.5C46.24 82.03 49.47 89.15 54.97 94.3C60.47 99.46 67.79 102.22 75.33 101.98C82.86 102.22 90.18 99.46 95.68 94.3C101.18 89.15 104.41 82.03 104.66 74.5C104.41 66.96 101.18 59.84 95.68 54.69C90.18 49.53 82.86 46.77 75.33 47.01ZM75.33 97.4C69.01 97.63 62.86 95.35 58.22 91.05C53.58 86.76 50.84 80.81 50.58 74.5C50.84 68.18 53.58 62.23 58.22 57.94C62.86 53.64 69.01 51.36 75.33 51.59C81.65 51.36 87.8 53.64 92.43 57.94C97.07 62.23 99.82 68.18 100.08 74.5C99.82 80.81 97.07 86.76 92.43 91.05C87.8 95.35 81.65 97.63 75.33 97.4Z" fill="#0066FF" fill-opacity="1.000000" fill-rule="nonzero"/>
	<path id="Vector" d="M75.33 47.01C67.79 46.77 60.47 49.53 54.97 54.69C49.47 59.84 46.24 66.96 46 74.5C46.24 82.03 49.47 89.15 54.97 94.3C60.47 99.46 67.79 102.22 75.33 101.98C82.86 102.22 90.18 99.46 95.68 94.3C101.18 89.15 104.41 82.03 104.66 74.5C104.41 66.96 101.18 59.84 95.68 54.69C90.18 49.53 82.86 46.77 75.33 47.01ZM103.66 74.5Q103.47 68.85 101.31 64.09Q99.15 59.3 95 55.42Q90.86 51.54 85.96 49.69Q81.04 47.83 75.36 48.01L75.33 48.01L75.3 48.01Q69.62 47.83 64.7 49.69Q59.8 51.54 55.66 55.42Q51.51 59.3 49.34 64.09Q47.19 68.85 47 74.5Q47.19 80.14 49.34 84.9Q51.51 89.69 55.66 93.57Q59.8 97.45 64.7 99.31Q69.62 101.16 75.3 100.98L75.33 100.98L75.36 100.98Q81.04 101.16 85.96 99.31Q90.86 97.45 95 93.57Q99.15 89.69 101.31 84.9Q103.47 80.14 103.66 74.5ZM51.78 83.98Q53.77 88.29 57.54 91.79Q61.31 95.28 65.76 96.93Q70.21 98.58 75.33 98.4Q80.45 98.58 84.89 96.93Q89.34 95.28 93.11 91.79Q96.89 88.29 98.88 83.98Q100.87 79.67 101.08 74.54L101.08 74.5L101.08 74.45Q100.87 69.32 98.88 65.01Q96.89 60.7 93.11 57.2Q89.34 53.71 84.89 52.06Q80.45 50.41 75.33 50.59Q70.21 50.41 65.76 52.06Q61.31 53.71 57.54 57.2Q53.77 60.7 51.78 65.01Q49.79 69.32 49.58 74.45L49.58 74.5L49.58 74.54Q49.79 79.67 51.78 83.98ZM75.33 51.59C69.01 51.36 62.86 53.64 58.22 57.94C53.58 62.23 50.84 68.18 50.58 74.5C50.84 80.81 53.58 86.76 58.22 91.05C62.86 95.35 69.01 97.63 75.33 97.4C81.65 97.63 87.8 95.35 92.43 91.05C97.07 86.76 99.82 80.81 100.08 74.5C99.82 68.18 97.07 62.23 92.43 57.94C87.8 53.64 81.65 51.36 75.33 51.59Z" fill="#0066FF" fill-opacity="1.000000" fill-rule="evenodd"/>
</svg>
