<svg width="150.000000" height="150.000000" viewBox="0 0 150 150" fill="none" xmlns="http://www.w3.org/2000/svg" xmlns:xlink="http://www.w3.org/1999/xlink">
	<desc>
			Created with Pixso.
	</desc>
	<defs/>
	<circle id="Ellipse 1" cx="75.000000" cy="75.000000" r="75.000000" fill="#FFFFFF" fill-opacity="1.000000"/>
	<circle id="Ellipse 1" cx="75.000000" cy="75.000000" r="74.500000" stroke="#0066FF" stroke-opacity="1.000000" stroke-width="1.000000"/>
	<path id="Vector" d="M104.78 76.96C104.33 72.03 103.59 71.08 103.31 70.71C102.66 69.88 101.63 69.34 100.54 68.76C100.48 68.73 100.43 68.69 100.39 68.63C100.35 68.58 100.32 68.51 100.31 68.45C100.3 68.38 100.3 68.31 100.32 68.25C100.34 68.18 100.38 68.12 100.43 68.07C100.63 67.87 100.79 67.63 100.88 67.37C100.98 67.11 101.02 66.82 101 66.55C100.95 66.05 100.71 65.59 100.33 65.26C99.95 64.92 99.46 64.74 98.95 64.75L97 64.75C96.92 64.75 96.83 64.75 96.75 64.76C96.69 64.74 96.63 64.72 96.57 64.7C95.42 62.32 93.84 59.06 90.56 57.47C85.7 55.12 76.74 55 74.99 55C73.24 55 64.28 55.12 59.43 57.47C56.15 59.06 54.57 62.32 53.41 64.7L53.4 64.72C53.35 64.73 53.29 64.74 53.24 64.76C53.15 64.75 53.07 64.75 52.99 64.75L51.03 64.75C50.52 64.74 50.03 64.92 49.65 65.26C49.27 65.59 49.03 66.05 48.99 66.55C48.96 66.82 49 67.1 49.1 67.37C49.2 67.63 49.36 67.87 49.56 68.06C49.61 68.11 49.65 68.17 49.67 68.24C49.69 68.3 49.69 68.37 49.68 68.44C49.67 68.51 49.64 68.57 49.6 68.62C49.56 68.68 49.51 68.73 49.45 68.76C48.36 69.33 47.32 69.88 46.68 70.71C46.4 71.07 45.66 72.03 45.21 76.95C44.96 79.72 44.92 82.59 45.12 84.44C45.53 88.28 46.3 90.6 46.34 90.7C46.45 91.05 46.67 91.36 46.96 91.59C47.26 91.83 47.61 91.97 47.99 92.02L47.99 92.05C47.99 92.56 48.2 93.06 48.57 93.42C48.95 93.79 49.46 94 49.99 94L56.99 94C57.52 94 58.03 93.79 58.4 93.42C58.78 93.06 58.99 92.56 58.99 92.05C60.06 92.05 60.81 91.86 61.61 91.66C62.75 91.36 63.92 91.16 65.11 91.06C68.92 90.7 72.71 90.58 74.99 90.58C77.22 90.58 81.18 90.7 85 91.06C86.19 91.16 87.37 91.36 88.52 91.66C89.28 91.85 90 92.03 91 92.04C91 92.56 91.21 93.06 91.58 93.42C91.96 93.79 92.47 93.99 93 93.99L100 93.99C100.53 93.99 101.04 93.79 101.41 93.42C101.79 93.06 102 92.56 102 92.04L102 92.03C102.38 91.98 102.73 91.84 103.02 91.6C103.32 91.37 103.54 91.06 103.65 90.7C103.69 90.61 104.46 88.29 104.87 84.45C105.07 82.6 105.03 79.74 104.78 76.96ZM57.03 66.37C58.03 64.3 59.17 61.95 61.21 60.96C64.15 59.53 70.25 58.89 74.99 58.89C79.73 58.89 85.83 59.53 88.77 60.96C90.81 61.95 91.95 64.3 92.95 66.37L93.08 66.63C93.15 66.78 93.18 66.95 93.17 67.11C93.16 67.28 93.1 67.44 93.01 67.58C92.92 67.72 92.79 67.83 92.64 67.91C92.49 67.99 92.32 68.03 92.15 68.02C87.99 67.91 79.24 67.56 74.99 67.56C70.74 67.56 61.99 67.92 57.83 68.03C57.66 68.04 57.49 68 57.34 67.92C57.19 67.84 57.06 67.73 56.96 67.59C56.87 67.45 56.82 67.29 56.8 67.12C56.79 66.96 56.83 66.79 56.9 66.64C56.94 66.55 56.99 66.46 57.03 66.37ZM58.52 76.07C56.37 76.32 54.21 76.45 52.04 76.44C50.71 76.44 49.35 76.08 49.09 74.93C48.92 74.16 48.94 73.72 49.03 73.28C49.11 72.91 49.24 72.64 49.86 72.55C51.49 72.3 52.4 72.61 55.06 73.37C56.82 73.88 58.09 74.55 58.82 75.08C59.18 75.35 58.99 76.04 58.52 76.07ZM86.2 86.07C84.55 86.25 81.26 86.18 75.03 86.18C68.79 86.18 65.51 86.25 63.86 86.07C62.16 85.88 60 84.32 61.48 82.92C62.46 82 64.76 81.32 67.81 80.93C70.87 80.54 72.16 80.35 75.02 80.35C77.87 80.35 79.03 80.47 82.22 80.93C85.41 81.4 87.82 82.09 88.56 82.92C89.9 84.42 87.89 85.87 86.2 86.07L86.2 86.07ZM100.89 74.93C100.64 76.08 99.26 76.44 97.94 76.44C95.73 76.44 93.53 76.32 91.34 76.07C90.95 76.04 90.78 75.38 91.16 75.08C91.88 74.54 93.16 73.88 94.93 73.37C97.59 72.61 99.12 72.3 100.44 72.55C100.76 72.62 100.93 72.95 100.95 73.16C101.04 73.75 101.02 74.35 100.89 74.93L100.89 74.93Z" fill="#0066FF" fill-opacity="1.000000" fill-rule="nonzero"/>
	<path id="Vector" d="M102 92.03C102.38 91.98 102.73 91.84 103.02 91.6C103.32 91.37 103.54 91.06 103.65 90.7C103.69 90.61 104.46 88.29 104.87 84.45C105.07 82.6 105.03 79.74 104.78 76.96C104.33 72.03 103.59 71.08 103.31 70.71C102.66 69.88 101.63 69.34 100.54 68.76C100.48 68.73 100.43 68.69 100.39 68.63C100.35 68.58 100.32 68.51 100.31 68.45C100.3 68.38 100.3 68.31 100.32 68.25C100.34 68.18 100.38 68.12 100.43 68.07C100.63 67.87 100.79 67.63 100.88 67.37C100.98 67.11 101.02 66.82 101 66.55C100.95 66.05 100.71 65.59 100.33 65.26C99.95 64.92 99.46 64.74 98.95 64.75L97 64.75C96.92 64.75 96.83 64.75 96.75 64.76C96.69 64.74 96.63 64.72 96.57 64.7C95.42 62.32 93.84 59.06 90.56 57.47C85.7 55.12 76.74 55 74.99 55C73.24 55 64.28 55.12 59.43 57.47C56.15 59.06 54.57 62.32 53.41 64.7L53.4 64.72C53.35 64.73 53.29 64.74 53.24 64.76C53.15 64.75 53.07 64.75 52.99 64.75L51.03 64.75C50.52 64.74 50.03 64.92 49.65 65.26C49.27 65.59 49.03 66.05 48.99 66.55C48.96 66.82 49 67.1 49.1 67.37C49.2 67.63 49.36 67.87 49.56 68.06C49.61 68.11 49.65 68.17 49.67 68.24C49.69 68.3 49.69 68.37 49.68 68.44C49.67 68.51 49.64 68.57 49.6 68.62C49.56 68.68 49.51 68.73 49.45 68.76C48.36 69.33 47.32 69.88 46.68 70.71C46.4 71.07 45.66 72.03 45.21 76.95C44.96 79.72 44.92 82.59 45.12 84.44C45.53 88.28 46.3 90.6 46.34 90.7C46.45 91.05 46.67 91.36 46.96 91.59C47.26 91.83 47.61 91.97 47.99 92.02L47.99 92.05C47.99 92.56 48.2 93.06 48.57 93.42C48.95 93.79 49.46 94 49.99 94L56.99 94C57.52 94 58.03 93.79 58.4 93.42C58.78 93.06 58.99 92.56 58.99 92.05C60.06 92.05 60.81 91.86 61.61 91.66C62.75 91.36 63.92 91.16 65.11 91.06C68.92 90.7 72.71 90.58 74.99 90.58C77.22 90.58 81.18 90.7 85 91.06C86.19 91.16 87.37 91.36 88.52 91.66C89.28 91.85 90 92.03 91 92.04L91 92.04C91 92.56 91.21 93.06 91.58 93.42C91.96 93.79 92.47 93.99 93 93.99L100 93.99C100.53 93.99 101.04 93.79 101.41 93.42C101.79 93.06 102 92.56 102 92.04L102 92.03ZM100.08 69.65Q102 70.66 102.52 71.33L102.52 71.33Q103.36 72.41 103.78 77.05Q104.18 81.45 103.88 84.34Q103.47 88.12 102.71 90.38Q102.67 90.49 102.61 90.59Q102.53 90.72 102.4 90.82Q102.3 90.9 102.19 90.95Q102.05 91.02 101.88 91.04L101 91.14L101 92.04Q101 92.22 100.94 92.37Q100.87 92.56 100.72 92.71Q100.58 92.84 100.42 92.91Q100.23 92.99 100 92.99L93 92.99Q92.77 92.99 92.58 92.91Q92.42 92.84 92.28 92.71Q92.13 92.56 92.06 92.37Q92 92.22 92 92.04L92 91.06L91.02 91.04Q90.11 91.03 88.77 90.69Q87.61 90.39 86.42 90.21Q85.76 90.12 85.09 90.06Q79.92 89.58 74.99 89.58Q70.19 89.58 65.03 90.06Q63.67 90.17 62.36 90.45Q61.86 90.56 61.36 90.69Q59.94 91.05 58.99 91.05L57.99 91.05L57.99 92.05Q57.99 92.22 57.93 92.37Q57.86 92.56 57.7 92.71Q57.57 92.84 57.41 92.91Q57.22 93 56.99 93L49.99 93Q49.76 93 49.56 92.91Q49.4 92.84 49.27 92.71Q49.12 92.56 49.04 92.37Q48.99 92.22 48.99 92.05L48.99 91.14L48.11 91.03Q47.94 91.01 47.8 90.94Q47.69 90.89 47.59 90.81Q47.46 90.71 47.38 90.58Q47.32 90.48 47.28 90.38Q46.52 88.12 46.11 84.33Q45.81 81.46 46.21 77.04Q46.63 72.42 47.47 71.32L47.48 71.32Q47.98 70.66 49.9 69.65L49.91 69.65Q50.06 69.57 50.19 69.45Q50.31 69.35 50.41 69.22Q50.51 69.08 50.58 68.92Q50.64 68.77 50.67 68.6Q50.7 68.43 50.68 68.26Q50.67 68.1 50.62 67.93Q50.59 67.84 50.55 67.76Q50.44 67.54 50.26 67.35Q50.17 67.26 50.11 67.16Q50.07 67.09 50.04 67.01Q49.97 66.84 49.98 66.67Q49.98 66.65 49.98 66.64Q50 66.47 50.07 66.33Q50.15 66.15 50.31 66.01Q50.44 65.9 50.58 65.83Q50.79 65.74 51.03 65.75L52.98 65.75Q53.01 65.75 53.05 65.75Q53.08 65.75 53.11 65.75L53.35 65.78L53.56 65.71L54.06 65.64L54.31 65.15L54.31 65.14L54.31 65.14Q56.9 59.81 59.86 58.37Q64.77 56 74.99 56Q85.22 56 90.12 58.37Q93.09 59.81 95.67 65.14L95.67 65.14L95.88 65.57L96.35 65.68Q96.35 65.68 96.36 65.68L96.61 65.79L96.87 65.75Q96.94 65.75 97 65.75L98.96 65.74Q99.18 65.74 99.37 65.82Q99.53 65.89 99.67 66.01Q99.84 66.16 99.93 66.35Q99.98 66.48 100 66.63Q100.01 66.73 100 66.82Q99.98 66.92 99.95 67.02Q99.94 67.04 99.93 67.06Q99.86 67.23 99.72 67.37Q99.59 67.49 99.51 67.64Q99.42 67.78 99.37 67.94Q99.32 68.1 99.31 68.27Q99.29 68.44 99.32 68.61Q99.35 68.77 99.41 68.92Q99.48 69.08 99.58 69.22Q99.7 69.38 99.85 69.5Q99.95 69.59 100.08 69.65ZM74.99 57.89Q65.25 57.89 60.77 60.06L60.77 60.06Q58.41 61.21 56.13 65.93L56.12 65.94L56.12 65.96Q56.09 66.01 56.04 66.12Q56.01 66.18 56 66.2Q55.88 66.44 55.84 66.69Q55.79 66.94 55.81 67.19Q55.82 67.44 55.9 67.68Q55.98 67.92 56.13 68.15Q56.27 68.35 56.45 68.51Q56.64 68.69 56.88 68.81Q57.1 68.92 57.34 68.98Q57.59 69.04 57.85 69.03Q59.17 69 62.87 68.87Q72.09 68.56 74.99 68.56Q77.92 68.56 87.26 68.87Q90.84 68.99 92.12 69.02Q92.39 69.03 92.63 68.97Q92.87 68.92 93.09 68.8Q93.34 68.68 93.53 68.5Q93.71 68.34 93.84 68.14Q93.99 67.91 94.07 67.67Q94.15 67.44 94.17 67.18Q94.19 66.89 94.13 66.61Q94.08 66.4 93.98 66.2L93.85 65.93Q91.56 61.2 89.21 60.06Q84.75 57.89 74.99 57.89ZM57.03 66.37C58.03 64.3 59.17 61.95 61.21 60.96C64.15 59.53 70.25 58.89 74.99 58.89C79.73 58.89 85.83 59.53 88.77 60.96C90.81 61.95 91.95 64.3 92.95 66.37L93.08 66.63C93.15 66.78 93.18 66.95 93.17 67.11C93.16 67.28 93.1 67.44 93.01 67.58C92.92 67.72 92.79 67.83 92.64 67.91C92.49 67.99 92.32 68.03 92.15 68.02C87.99 67.91 79.24 67.56 74.99 67.56C70.74 67.56 61.99 67.92 57.83 68.03C57.66 68.04 57.49 68 57.34 67.92C57.19 67.84 57.06 67.73 56.96 67.59C56.87 67.45 56.82 67.29 56.8 67.12C56.79 66.96 56.83 66.79 56.9 66.64C56.94 66.55 56.99 66.46 57.03 66.37ZM97.94 77.44L97.94 77.44Q100.42 77.44 101.36 76.24Q101.72 75.78 101.86 75.15L101.86 75.15Q101.98 74.61 102 74.08Q102.02 73.56 101.94 73.04Q101.87 72.39 101.52 72.02Q101.19 71.68 100.63 71.57Q98.79 71.22 94.65 72.41Q92.03 73.16 90.55 74.29Q90.18 74.58 90.03 74.95Q89.87 75.36 89.98 75.88Q90.11 76.5 90.49 76.8Q90.79 77.02 91.22 77.06Q92.81 77.24 94.4 77.34Q96.17 77.44 97.94 77.44ZM100.86 75.04C100.55 76.11 99.22 76.44 97.94 76.44C95.73 76.44 93.53 76.32 91.34 76.07C90.95 76.04 90.78 75.38 91.16 75.08C91.88 74.54 93.16 73.88 94.93 73.37C97.59 72.61 99.12 72.3 100.44 72.55C100.76 72.62 100.93 72.95 100.95 73.16C101.03 73.72 101.02 74.28 100.91 74.82C100.9 74.86 100.9 74.89 100.89 74.93L100.89 74.93L100.89 74.93L100.89 74.93C100.88 74.97 100.87 75 100.86 75.04ZM52.04 77.44L52.04 77.44Q53.78 77.45 55.52 77.34Q57.07 77.25 58.62 77.07Q59.09 77.03 59.4 76.79Q59.78 76.5 59.94 75.94Q60.11 75.37 59.94 74.92Q59.79 74.56 59.41 74.28Q57.85 73.13 55.33 72.41Q55.18 72.37 54.89 72.28Q51.46 71.29 49.71 71.56Q48.98 71.67 48.55 72.09Q48.18 72.46 48.06 73.07Q47.86 73.99 48.12 75.14Q48.26 75.78 48.62 76.25Q49.57 77.44 52.04 77.44ZM58.52 76.07C56.37 76.32 54.21 76.45 52.04 76.44C50.71 76.44 49.35 76.08 49.09 74.93C48.92 74.16 48.94 73.72 49.03 73.28C49.11 72.91 49.24 72.64 49.86 72.55C51.39 72.32 52.29 72.57 54.61 73.24C54.75 73.28 54.9 73.33 55.06 73.37C56.82 73.88 58.09 74.55 58.82 75.08C59.18 75.35 58.99 76.04 58.52 76.07ZM71.1 87.19Q73.56 87.18 75.03 87.18Q76.49 87.18 78.95 87.19Q83.3 87.2 85.2 87.13L85.2 87.2L86.32 87.07Q87.65 86.91 88.61 86.23Q88.95 85.98 89.24 85.67Q90.06 84.81 90.06 83.95Q90.07 83.11 89.3 82.26Q87.97 80.76 82.36 79.94Q78.27 79.35 75.02 79.35Q72.34 79.35 68.43 79.84Q67.95 79.91 67.69 79.94Q62.51 80.59 60.79 82.2Q60.19 82.76 60.04 83.44Q59.97 83.73 59.99 84.04Q60 84.17 60.02 84.3Q60.15 85.02 60.76 85.64Q61.17 86.07 61.65 86.37Q62.57 86.93 63.75 87.06Q65.06 87.21 71.1 87.19ZM85.2 86.14C83.86 86.2 81.87 86.2 78.96 86.19L78.96 86.19C77.8 86.19 76.49 86.18 75.03 86.18C73.56 86.18 72.26 86.19 71.1 86.19L71.1 86.19C67.34 86.2 65.12 86.21 63.86 86.07C62.16 85.88 60 84.32 61.48 82.92C62.46 82 64.76 81.32 67.81 80.93C70.87 80.54 72.16 80.35 75.02 80.35C77.87 80.35 79.03 80.47 82.22 80.93C85.41 81.4 87.82 82.09 88.56 82.92C89.64 84.13 88.55 85.3 87.2 85.82C86.87 85.95 86.53 86.03 86.2 86.07L86.2 86.07L86.2 86.07L86.2 86.07C85.91 86.1 85.58 86.12 85.2 86.14Z" fill="#0066FF" fill-opacity="1.000000" fill-rule="evenodd"/>
</svg>
