<svg width="150.000000" height="150.000000" viewBox="0 0 150 150" fill="none" xmlns="http://www.w3.org/2000/svg" xmlns:xlink="http://www.w3.org/1999/xlink">
	<desc>
			Created with Pixso.
	</desc>
	<defs/>
	<circle id="Ellipse 3" cx="75.000000" cy="75.000000" r="75.000000" fill="#FFFFFF" fill-opacity="1.000000"/>
	<circle id="Ellipse 3" cx="75.000000" cy="75.000000" r="74.500000" stroke="#0066FF" stroke-opacity="1.000000" stroke-width="1.000000"/>
	<path id="Vector" d="M54.75 54C52.16 54 49.68 55.02 47.85 56.85C46.02 58.68 45 61.16 45 63.75L45 67.5L105 67.5L105 63.75C105 62.46 104.74 61.2 104.25 60.01C103.76 58.83 103.05 57.76 102.14 56.85C101.23 55.95 100.16 55.23 98.98 54.74C97.79 54.25 96.53 54 95.25 54L54.75 54ZM105 72L45 72L45 86.25C45 88.83 46.02 91.31 47.85 93.14C49.68 94.97 52.16 96 54.75 96L95.25 96C96.53 96 97.79 95.74 98.98 95.25C100.16 94.76 101.23 94.04 102.14 93.14C103.05 92.23 103.76 91.16 104.25 89.98C104.74 88.79 105 87.53 105 86.25L105 72ZM86.25 82.5L93.75 82.5C94.34 82.5 94.91 82.73 95.34 83.15C95.76 83.58 96 84.15 96 84.75C96 85.34 95.76 85.91 95.34 86.34C94.91 86.76 94.34 87 93.75 87L86.25 87C85.65 87 85.08 86.76 84.65 86.34C84.23 85.91 84 85.34 84 84.75C84 84.15 84.23 83.58 84.65 83.15C85.08 82.73 85.65 82.5 86.25 82.5Z" fill="#0066FF" fill-opacity="1.000000" fill-rule="nonzero"/>
	<path id="Vector" d="M54.75 54C52.16 54 49.68 55.02 47.85 56.85C46.02 58.68 45 61.16 45 63.75L45 67.5L105 67.5L105 63.75C105 62.46 104.74 61.2 104.25 60.01C103.76 58.83 103.05 57.76 102.14 56.85C101.23 55.95 100.16 55.23 98.98 54.74C97.79 54.25 96.53 54 95.25 54L54.75 54ZM104 66.5L104 63.75Q104 62.87 103.83 62.04Q103.66 61.2 103.33 60.4Q103 59.59 102.52 58.88Q102.05 58.17 101.43 57.56Q100.82 56.94 100.11 56.47Q99.4 55.99 98.59 55.66Q97.79 55.33 96.95 55.16Q96.12 55 95.25 55L54.75 55Q52.93 55 51.39 55.64Q49.84 56.28 48.56 57.56Q47.28 58.84 46.64 60.39Q46 61.93 46 63.75L46 66.5L104 66.5ZM46 72L45 72L45 86.25C45 88.83 46.02 91.31 47.85 93.14C49.68 94.97 52.16 96 54.75 96L95.25 96C96.53 96 97.79 95.74 98.98 95.25C100.16 94.76 101.23 94.04 102.14 93.14C103.05 92.23 103.76 91.16 104.25 89.98C104.74 88.79 105 87.53 105 86.25L105 72L46 72ZM104 73L46 73L46 86.25Q46 88.06 46.64 89.6Q47.28 91.15 48.56 92.43Q49.84 93.71 51.39 94.35Q52.93 95 54.75 95L95.25 95Q96.12 95 96.95 94.83Q97.79 94.66 98.59 94.33Q99.4 94 100.11 93.52Q100.82 93.05 101.43 92.43Q102.05 91.82 102.52 91.11Q103 90.4 103.33 89.59Q103.66 88.79 103.83 87.95Q104 87.12 104 86.25L104 73ZM94.99 81.73Q94.42 81.5 93.75 81.5L86.25 81.5Q85.57 81.5 85 81.73Q84.42 81.97 83.95 82.45Q83.47 82.92 83.23 83.5Q83 84.07 83 84.75Q83 85.42 83.23 85.99Q83.47 86.57 83.95 87.04Q84.42 87.52 85 87.76Q85.57 88 86.25 88L93.75 88Q94.42 88 94.99 87.76Q95.57 87.52 96.04 87.04Q96.52 86.57 96.76 85.99Q97 85.42 97 84.75Q97 84.07 96.76 83.5Q96.52 82.92 96.04 82.45Q95.57 81.97 94.99 81.73ZM86.25 82.5L93.75 82.5C94.34 82.5 94.91 82.73 95.34 83.15C95.76 83.58 96 84.15 96 84.75C96 85.34 95.76 85.91 95.34 86.34C94.91 86.76 94.34 87 93.75 87L86.25 87C85.65 87 85.08 86.76 84.65 86.34C84.23 85.91 84 85.34 84 84.75C84 84.15 84.23 83.58 84.65 83.15C85.08 82.73 85.65 82.5 86.25 82.5Z" fill="#0066FF" fill-opacity="1.000000" fill-rule="evenodd"/>
</svg>
