<svg width="150.000000" height="150.000000" viewBox="0 0 150 150" fill="none" xmlns="http://www.w3.org/2000/svg" xmlns:xlink="http://www.w3.org/1999/xlink">
	<desc>
			Created with Pixso.
	</desc>
	<defs/>
	<circle id="Ellipse 4" cx="75.000000" cy="75.000000" r="74.500000" stroke="#0066FF" stroke-opacity="1.000000" stroke-width="1.000000"/>
	<path id="Vector" d="M94 68.5L89.12 63.62L77.94 52.44L74.5 49L71.05 52.44L59.87 63.62L55 68.5L64.75 68.5L64.75 91.25L84.25 91.25L84.25 68.5L94 68.5ZM74.5 55.89L82.23 63.62L79.37 63.62L79.37 86.37L69.62 86.37L69.62 63.62L66.76 63.62L74.5 55.89ZM67.18 96.12C66.54 96.12 65.92 96.38 65.46 96.83C65 97.29 64.75 97.91 64.75 98.56C64.75 99.2 65 99.82 65.46 100.28C65.92 100.74 66.54 101 67.18 101L81.81 101C82.45 101 83.07 100.74 83.53 100.28C83.99 99.82 84.25 99.2 84.25 98.56C84.25 97.91 83.99 97.29 83.53 96.83C83.07 96.38 82.45 96.12 81.81 96.12L67.18 96.12Z" fill="#0066FF" fill-opacity="1.000000" fill-rule="evenodd"/>
	<path id="Vector" d="M85.25 68.5L94 68.5L89.12 63.62L77.94 52.44L75.2 49.7L74.5 49L73.79 49.7L55 68.5L64.75 68.5L64.75 91.25L84.25 91.25L84.25 68.5L85.25 68.5ZM83.25 90.25L83.25 67.5L91.58 67.5L88.41 64.33L77.23 53.15L74.5 50.41L71.76 53.15L60.58 64.33L57.41 67.5L65.75 67.5L65.75 90.25L83.25 90.25ZM80.37 64.62L84.64 64.62L74.5 54.47L64.35 64.62L68.62 64.62L68.62 87.37L80.37 87.37L80.37 64.62ZM79.37 64.62L79.37 63.62L82.23 63.62L81.23 62.62L75.2 56.6L74.5 55.89L73.79 56.6L67.76 62.62L66.76 63.62L69.62 63.62L69.62 86.37L79.37 86.37L79.37 64.62ZM67.18 96.12C66.54 96.12 65.92 96.38 65.46 96.83C65 97.29 64.75 97.91 64.75 98.56C64.75 99.2 65 99.82 65.46 100.28C65.92 100.74 66.54 101 67.18 101L81.81 101C82.45 101 83.07 100.74 83.53 100.28C83.99 99.82 84.25 99.2 84.25 98.56C84.25 97.91 83.99 97.29 83.53 96.83C83.07 96.38 82.45 96.12 81.81 96.12L67.18 96.12ZM65.85 98.01Q65.96 97.75 66.17 97.54Q66.38 97.33 66.63 97.23Q66.88 97.12 67.18 97.12L81.81 97.12Q82.11 97.12 82.36 97.23Q82.61 97.33 82.82 97.54Q83.03 97.75 83.14 98.01Q83.25 98.26 83.25 98.56Q83.25 98.86 83.14 99.11Q83.03 99.36 82.82 99.57Q82.61 99.78 82.36 99.89Q82.11 100 81.81 100L67.18 100Q66.88 100 66.63 99.89Q66.38 99.78 66.17 99.57Q65.96 99.36 65.85 99.11Q65.75 98.86 65.75 98.56Q65.75 98.26 65.85 98.01Z" fill="#FFFFFF" fill-opacity="1.000000" fill-rule="evenodd"/>
</svg>
